<?xml version="1.0" encoding="UTF-8" standalone="no"?>
<!-- Created with Inkscape (http://www.inkscape.org/) -->

<svg
   width="512"
   height="512"
   viewBox="0 0 135.46666 135.46667"
   version="1.1"
   id="svg5"
   inkscape:version="1.2.2 (b0a84865, 2022-12-01)"
   sodipodi:docname="art.svg"
   xmlns:inkscape="http://www.inkscape.org/namespaces/inkscape"
   xmlns:sodipodi="http://sodipodi.sourceforge.net/DTD/sodipodi-0.dtd"
   xmlns="http://www.w3.org/2000/svg"
   xmlns:svg="http://www.w3.org/2000/svg">
  <sodipodi:namedview
     id="namedview7"
     pagecolor="#ffffff"
     bordercolor="#000000"
     borderopacity="0.25"
     inkscape:showpageshadow="2"
     inkscape:pageopacity="0.0"
     inkscape:pagecheckerboard="0"
     inkscape:deskcolor="#d1d1d1"
     inkscape:document-units="mm"
     showgrid="false"
     inkscape:zoom="0.79421756"
     inkscape:cx="114.57818"
     inkscape:cy="266.29983"
     inkscape:window-width="1185"
     inkscape:window-height="847"
     inkscape:window-x="0"
     inkscape:window-y="25"
     inkscape:window-maximized="0"
     inkscape:current-layer="layer1" />
  <defs
     id="defs2" />
  <g
     inkscape:label="Layer 1"
     inkscape:groupmode="layer"
     id="layer1">
    <path
       id="path1620-0"
       style="fill:#ffffff;fill-rule:evenodd;stroke-width:0.264583"
       d="M 67.733333,24.632073 A 43.160263,43.160263 0 0 0 24.573177,67.792229 43.160263,43.160263 0 0 0 55.912866,109.276 c 11.646919,1.84277 16.479106,-8.10326 13.642578,-18.713584 -4.560777,-17.060066 6.772646,-18.977898 34.347256,-16.79174 4.56548,0.361958 6.56599,-1.804458 6.96598,-5.318539 a 43.160263,43.160263 0 0 0 0.0248,-0.659908 43.160263,43.160263 0 0 0 -43.160147,-43.160156 z m -1.969389,12.218893 a 5.7930412,5.7930412 0 0 1 5.792928,5.792928 5.7930412,5.7930412 0 0 1 -5.792928,5.792928 5.7930412,5.7930412 0 0 1 -5.792928,-5.792928 5.7930412,5.7930412 0 0 1 5.792928,-5.792928 z m 22.313884,7.724076 a 5.7930412,5.7930412 0 0 1 5.793444,5.792928 5.7930412,5.7930412 0 0 1 -5.793444,5.792928 5.7930412,5.7930412 0 0 1 -5.792928,-5.792928 5.7930412,5.7930412 0 0 1 5.792928,-5.792928 z m -43.340507,1.501717 a 5.7930412,5.7930412 0 0 1 5.792928,5.792928 5.7930412,5.7930412 0 0 1 -5.792928,5.793445 5.7930412,5.7930412 0 0 1 -5.792928,-5.793445 5.7930412,5.7930412 0 0 1 5.792928,-5.792928 z M 41.948344,68.6051 a 5.7930412,5.7930412 0 0 1 5.792928,5.793445 5.7930412,5.7930412 0 0 1 -5.792928,5.792928 5.7930412,5.7930412 0 0 1 -5.792929,-5.792928 5.7930412,5.7930412 0 0 1 5.792929,-5.793445 z m 15.434716,41.06519 a 43.160263,43.160263 0 0 0 1.128097,0.27234 43.160263,43.160263 0 0 1 -1.128097,-0.27234 z m 3.658692,0.75086 a 43.160263,43.160263 0 0 0 0.653707,0.0935 43.160263,43.160263 0 0 1 -0.653707,-0.0935 z m 3.307808,0.39274 a 43.160263,43.160263 0 0 0 0.243913,0.0207 43.160263,43.160263 0 0 1 -0.243913,-0.0207 z" />
  </g>
</svg>
