<?xml version="1.0" encoding="UTF-8" standalone="no"?>
<!-- Created with Inkscape (http://www.inkscape.org/) -->

<svg
   width="512"
   height="512"
   viewBox="0 0 135.46666 135.46667"
   version="1.1"
   id="svg5"
   inkscape:version="1.2.2 (b0a84865, 2022-12-01)"
   sodipodi:docname="body_board.svg"
   xmlns:inkscape="http://www.inkscape.org/namespaces/inkscape"
   xmlns:sodipodi="http://sodipodi.sourceforge.net/DTD/sodipodi-0.dtd"
   xmlns="http://www.w3.org/2000/svg"
   xmlns:svg="http://www.w3.org/2000/svg">
  <sodipodi:namedview
     id="namedview7"
     pagecolor="#ffffff"
     bordercolor="#000000"
     borderopacity="0.25"
     inkscape:showpageshadow="2"
     inkscape:pageopacity="0.0"
     inkscape:pagecheckerboard="0"
     inkscape:deskcolor="#d1d1d1"
     inkscape:document-units="mm"
     showgrid="false"
     inkscape:zoom="0.68322307"
     inkscape:cx="296.38929"
     inkscape:cy="360.78992"
     inkscape:window-width="1185"
     inkscape:window-height="847"
     inkscape:window-x="0"
     inkscape:window-y="25"
     inkscape:window-maximized="0"
     inkscape:current-layer="layer1" />
  <defs
     id="defs2" />
  <g
     inkscape:label="Layer 1"
     inkscape:groupmode="layer"
     id="layer1">
    <path
       id="path111"
       style="fill:#ffffff;fill-rule:evenodd;stroke-width:0.257122;opacity:0.6"
       d="m 80.385727,32.855713 a 9.3158336,9.458949 0 0 0 -9.309224,9.463 9.3158336,9.458949 0 0 0 9.317856,9.454921 9.3158336,9.458949 0 0 0 9.313681,-9.4591 h -9.315634 l 9.315634,-0.0089 a 9.3158336,9.458949 0 0 0 -9.322313,-9.44991 z M 65.631544,51.144588 c -1.684876,2.21e-4 -3.321691,0.556128 -4.563513,1.6821 L 42.938786,69.264083 c -0.08455,0.07666 -0.165813,0.155464 -0.244598,0.235405 l -4.396362,3.986283 c 2.754942,0.562034 5.448699,1.622879 7.957524,2.757163 3.149614,1.423996 6.032835,4.24246 8.694938,5.346339 0.92374,0.383046 1.924249,0.772615 2.958024,1.134679 l 5.307058,-4.812289 c 0.08511,-0.07717 0.166997,-0.156306 0.24627,-0.236798 l 12.198992,-11.06069 5.683428,4.112762 c 0.0252,0.01825 0.05112,0.03497 0.0766,0.05265 1.246713,1.178644 3.227986,1.465012 4.963839,0.57528 l 18.159061,-9.307551 c 2.18125,-1.118034 3.12313,-3.65538 2.11196,-5.689278 -1.0112,-2.033892 -3.58157,-2.771436 -5.76282,-1.653406 L 84.658669,63.025992 69.479928,52.04247 c -0.808373,-0.584941 -1.725598,-0.877174 -2.617313,-0.893424 -0.184403,-0.0033 -0.367516,0.0064 -0.548536,0.02646 -0.227796,-0.02008 -0.455634,-0.03096 -0.682535,-0.03093 z M 109.84672,61.734467 65.186921,84.33975 c 2.413719,0.186508 4.605375,0.06474 7.4895,-0.432087 1.098485,-0.189229 2.169222,-0.487569 3.210976,-0.848293 L 104.04183,68.808317 c 3.64817,-1.846599 5.98534,-4.793935 5.80489,-7.07385 z M 34.536362,77.280944 c -2.877303,-0.0227 -5.719781,0.478126 -8.733385,1.132173 -0.787541,0.170923 -1.755586,0.44982 -2.7814,0.774469 v 3.875127 c 2.967137,-0.840824 6.57871,-2.011287 9.253783,-2.176869 2.874083,-0.177895 5.01341,0.491691 7.238493,1.072276 2.225076,0.58058 3.703631,1.503418 6.239485,2.69476 2.535857,1.191339 6.120579,4.053251 9.310893,5.175007 3.190314,1.121747 6.447107,2.315619 10.027136,2.567727 3.580027,0.252114 7.565949,-0.06597 10.935883,-0.822386 3.369924,-0.756438 6.176218,-2.258991 9.113375,-3.495414 2.937158,-1.236412 5.658949,-3.502227 8.505497,-4.274341 2.84654,-0.772099 4.725615,-1.566465 8.363698,-1.495728 2.78557,0.05411 7.00401,1.031337 10.43527,2.068778 v -3.796009 c -3.41962,-1.047053 -7.21518,-1.958275 -10.23245,-1.984088 -4.487967,-0.0384 -7.123186,0.671781 -10.273136,1.72361 -3.149978,1.051834 -5.543849,2.952764 -8.418857,4.279077 -2.875009,1.3263 -6.093849,2.949222 -9.578612,3.534977 -3.484763,0.58576 -5.980367,0.654899 -9.029242,0.305608 -3.048878,-0.349291 -6.408845,-1.520122 -9.137054,-2.624002 -2.728207,-1.103889 -5.683297,-3.92234 -8.911123,-5.346338 -3.22783,-1.423999 -6.753668,-2.734732 -10.328288,-3.084222 -0.670241,-0.06553 -1.335973,-0.09895 -1.999966,-0.104192 z M 30.29378,87.411437 c -2.412976,-0.0172 -4.804052,0.267542 -7.272203,0.691451 v 3.704631 c 1.701926,-0.395658 3.360827,-0.712308 4.773846,-0.791463 3.175833,-0.177897 5.540055,0.491418 7.998753,1.071998 2.45869,0.580591 4.092619,1.503696 6.894719,2.69504 2.802097,1.191333 6.763181,4.052994 10.288449,5.174725 3.525277,1.121761 7.123738,2.315881 11.079634,2.568011 3.955902,0.25209 8.360199,-0.0656 12.083935,-0.82211 3.723743,-0.75644 6.82507,-2.259279 10.070598,-3.495696 3.245538,-1.236407 6.253224,-3.502232 9.398648,-4.274336 3.145383,-0.772109 5.221501,-1.566183 9.241521,-1.495453 2.06407,0.03628 4.84248,0.489532 7.59341,1.095681 v -3.808268 c -2.58597,-0.57348 -5.16544,-0.981943 -7.36971,-0.99901 -4.95918,-0.03839 -7.870845,0.67179 -11.351528,1.72361 -3.480661,1.051836 -6.125964,2.952764 -9.302809,4.279077 -3.176881,1.3263 -6.733684,2.94894 -10.584313,3.534692 -3.850633,0.585761 -6.608289,0.655174 -9.977269,0.305887 -3.368983,-0.349288 -7.081585,-1.520108 -10.096226,-2.623996 -3.014646,-1.103886 -6.279893,-3.922616 -9.846613,-5.346616 -3.566724,-1.423986 -7.462897,-2.734734 -11.412822,-3.084219 -0.74061,-0.06552 -1.476322,-0.09839 -2.21002,-0.103636 z" />
  </g>
</svg>
