<?xml version="1.0" encoding="UTF-8" standalone="no"?>
<!-- Created with Inkscape (http://www.inkscape.org/) -->

<svg
   width="512"
   height="512"
   viewBox="0 0 135.46666 135.46667"
   version="1.1"
   id="svg5"
   inkscape:version="1.2.2 (b0a84865, 2022-12-01)"
   sodipodi:docname="cinema.svg"
   xmlns:inkscape="http://www.inkscape.org/namespaces/inkscape"
   xmlns:sodipodi="http://sodipodi.sourceforge.net/DTD/sodipodi-0.dtd"
   xmlns="http://www.w3.org/2000/svg"
   xmlns:svg="http://www.w3.org/2000/svg">
  <sodipodi:namedview
     id="namedview7"
     pagecolor="#ffffff"
     bordercolor="#000000"
     borderopacity="0.25"
     inkscape:showpageshadow="2"
     inkscape:pageopacity="0.0"
     inkscape:pagecheckerboard="0"
     inkscape:deskcolor="#d1d1d1"
     inkscape:document-units="mm"
     showgrid="false"
     inkscape:zoom="1.0482732"
     inkscape:cx="220.3624"
     inkscape:cy="216.06962"
     inkscape:window-width="1185"
     inkscape:window-height="847"
     inkscape:window-x="0"
     inkscape:window-y="26"
     inkscape:window-maximized="0"
     inkscape:current-layer="layer1" />
  <defs
     id="defs2" />
  <g
     inkscape:label="Layer 1"
     inkscape:groupmode="layer"
     id="layer1">
    <path
       id="rect944"
       style="opacity:0.6;fill:#ffffff;stroke:none;stroke-width:0.269527"
       d="m 33.376834,30.773707 c -7.275573,0 -13.132833,5.857259 -13.132833,13.132832 v 47.653592 c 0,7.275573 5.85726,13.132829 13.132833,13.132829 h 68.712996 c 7.27558,0 13.13283,-5.857256 13.13283,-13.132829 V 43.906539 c 0,-7.275573 -5.85725,-13.132832 -13.13283,-13.132832 z m 20.174502,8.612662 H 81.91533 c 2.360195,0 4.260258,1.900063 4.260258,4.260258 V 59.10565 c 0,2.360192 -1.900063,4.260258 -4.260258,4.260258 H 53.551336 c -2.360192,0 -4.260258,-1.900066 -4.260258,-4.260258 V 43.646627 c 0,-2.360195 1.900066,-4.260258 4.260258,-4.260258 z m -21.283761,0.194809 h 5.052514 c 1.848023,0 3.335791,1.487769 3.335791,3.335791 v 5.051514 c 0,1.848022 -1.487768,3.335791 -3.335791,3.335791 h -5.052514 c -1.848023,0 -3.335792,-1.487769 -3.335792,-3.335791 v -5.051514 c 0,-1.848022 1.487769,-3.335791 3.335792,-3.335791 z m 65.878502,0 h 5.053023 c 1.848,0 3.33578,1.487769 3.33578,3.335791 v 5.051514 c 0,1.848022 -1.48778,3.335791 -3.33578,3.335791 h -5.053023 c -1.848014,0 -3.335791,-1.487769 -3.335791,-3.335791 v -5.051514 c 0,-1.848022 1.487777,-3.335791 3.335791,-3.335791 z M 32.267575,61.793913 h 5.052514 c 1.848023,0 3.335791,1.48777 3.335791,3.335792 v 5.052515 c 0,1.848022 -1.487768,3.336292 -3.335791,3.336292 h -5.052514 c -1.848023,0 -3.335792,-1.48827 -3.335792,-3.336292 v -5.052515 c 0,-1.848022 1.487769,-3.335792 3.335792,-3.335792 z m 65.878502,0 h 5.053023 c 1.848,0 3.33578,1.48777 3.33578,3.335792 v 5.052515 c 0,1.848022 -1.48778,3.336292 -3.33578,3.336292 h -5.053023 c -1.848014,0 -3.335791,-1.48827 -3.335791,-3.336292 v -5.052515 c 0,-1.848022 1.487777,-3.335792 3.335791,-3.335792 z M 53.551336,71.84686 H 81.91533 c 2.360193,0 4.260258,1.900066 4.260258,4.260259 v 15.459022 c 0,2.360193 -1.900065,4.260258 -4.260258,4.260258 H 53.551336 c -2.360189,0 -4.260258,-1.900065 -4.260258,-4.260258 V 76.107119 c 0,-2.360193 1.900069,-4.260259 4.260258,-4.260259 z M 32.267575,84.161896 h 5.052514 c 1.848023,0 3.335791,1.48827 3.335791,3.336292 v 5.051514 c 0,1.848022 -1.487768,3.335791 -3.335791,3.335791 h -5.052514 c -1.848023,0 -3.335792,-1.487769 -3.335792,-3.335791 v -5.051514 c 0,-1.848022 1.487769,-3.336292 3.335792,-3.336292 z m 65.878502,0 h 5.053023 c 1.848,0 3.33578,1.48827 3.33578,3.336292 v 5.051514 c 0,1.848022 -1.48778,3.335791 -3.33578,3.335791 h -5.053023 c -1.848014,0 -3.335791,-1.487769 -3.335791,-3.335791 v -5.051514 c 0,-1.848022 1.487777,-3.336292 3.335791,-3.336292 z" />
  </g>
</svg>
