<?xml version="1.0" encoding="UTF-8" standalone="no"?>
<!-- Created with Inkscape (http://www.inkscape.org/) -->

<svg
   width="512"
   height="512"
   viewBox="0 0 135.46667 135.46666"
   version="1.1"
   id="svg5"
   inkscape:version="1.2.2 (b0a84865, 2022-12-01)"
   sodipodi:docname="crab.svg"
   inkscape:export-filename="crab_2.svg"
   inkscape:export-xdpi="96"
   inkscape:export-ydpi="96"
   xmlns:inkscape="http://www.inkscape.org/namespaces/inkscape"
   xmlns:sodipodi="http://sodipodi.sourceforge.net/DTD/sodipodi-0.dtd"
   xmlns="http://www.w3.org/2000/svg"
   xmlns:svg="http://www.w3.org/2000/svg">
  <sodipodi:namedview
     id="namedview7"
     pagecolor="#ffffff"
     bordercolor="#000000"
     borderopacity="0.25"
     inkscape:showpageshadow="2"
     inkscape:pageopacity="0.0"
     inkscape:pagecheckerboard="0"
     inkscape:deskcolor="#d1d1d1"
     inkscape:document-units="mm"
     showgrid="false"
     inkscape:zoom="0.82154672"
     inkscape:cx="147.28316"
     inkscape:cy="370.64234"
     inkscape:window-width="1265"
     inkscape:window-height="847"
     inkscape:window-x="289"
     inkscape:window-y="1105"
     inkscape:window-maximized="0"
     inkscape:current-layer="layer1" />
  <defs
     id="defs2">
    <clipPath
       clipPathUnits="userSpaceOnUse"
       id="clipPath228">
      <g
         inkscape:label="Clip"
         id="use230">
        <ellipse
           style="fill:fill:rgb(255,255,255,0.6);stroke-width:0.292997"
           id="ellipse2024"
           cx="14.073595"
           cy="11.766033"
           rx="5.9083743"
           ry="4.8179874" />
      </g>
    </clipPath>
  </defs>
  <g
     inkscape:label="Layer 1"
     inkscape:groupmode="layer"
     id="layer1"
     transform="translate(-0.40018833,-0.17236958)">
    <path
       id="rect334"
       style="fill:#ffffff;stroke-width:1.13039;opacity:0.6"
       d="m 54.339266,20.827371 c -1.862307,-0.0063 -9.56666,0.07264 -13.64874,1.742199 -3.336334,1.364549 -6.604158,3.797885 -9.045318,6.450028 -2.676718,2.908055 -4.005623,6.197015 -4.677271,10.091947 -0.18282,1.060176 -0.252427,2.576054 -0.276846,3.841278 -0.0088,0.07591 -0.01401,0.153161 -0.01455,0.231371 l -0.110593,15.886059 c -0.0041,0.583802 0.228014,1.111284 0.607532,1.492274 0.227805,0.359475 0.539473,0.676249 0.92876,0.920393 l 17.206623,10.791519 a 26.095463,20.682042 0 0 0 -1.53702,2.656772 l -12.74508,-1e-6 -4.362592,-3.779068 c -1.134091,-0.982464 -2.838077,-0.860521 -3.820541,0.273571 -0.982463,1.134092 -0.86052,2.838078 0.273572,3.820541 l 4.749301,4.114121 c 0.208072,0.180253 0.435647,0.323174 0.674107,0.429638 0.456286,0.350025 1.027715,0.558057 1.649795,0.558057 H 42.16352 a 26.095463,20.682042 0 0 0 -0.125508,1.92082 26.095463,20.682042 0 0 0 0.02365,0.380163 L 31.635749,85.76602 c -0.39008,0.116619 -0.733402,0.312664 -1.018981,0.564605 -0.225433,0.129292 -0.436417,0.292855 -0.62463,0.491847 l -4.317845,4.565223 c -1.031055,1.090102 -0.983511,2.797491 0.106592,3.828547 1.090103,1.031055 2.797854,0.983512 3.828907,-0.106596 l 4.067193,-4.300015 9.398559,-2.80993 a 26.095463,20.682042 0 0 0 1.876075,3.737235 l -7.600339,3.065669 c -0.478672,0.19309 -0.871764,0.50566 -1.158676,0.889471 -0.283156,0.173185 -0.539405,0.401287 -0.751957,0.683204 l -3.78307,5.01742 c -0.90331,1.19809 -0.665867,2.88958 0.532227,3.79289 1.198095,0.90331 2.889948,0.66623 3.793256,-0.53187 l 3.746328,-4.96939 8.994387,-3.628461 a 26.095463,20.682042 0 0 0 3.100961,2.345 l -6.528242,4.685281 c -0.508619,0.36505 -0.852511,0.87149 -1.01789,1.42606 -0.237231,0.35096 -0.39599,0.76303 -0.447099,1.2147 l -0.706485,6.24376 c -0.168714,1.49095 0.895524,2.82711 2.386474,2.99582 1.490951,0.16872 2.827113,-0.89588 2.995825,-2.38684 l 0.631906,-5.58347 8.2337,-5.9098 a 26.095463,20.682042 0 0 0 10.760596,1.86444 26.095463,20.682042 0 0 0 10.760597,-1.86444 l 8.233699,5.9098 0.631907,5.58348 c 0.168713,1.49095 1.504874,2.55555 2.995825,2.38683 1.490951,-0.16871 2.555188,-1.50487 2.386475,-2.99582 l -0.706483,-6.24376 c -0.05111,-0.45167 -0.20987,-0.86374 -0.447102,-1.2147 -0.165379,-0.55456 -0.509271,-1.06101 -1.017889,-1.42606 l -6.528242,-4.685276 a 26.095463,20.682042 0 0 0 3.100961,-2.345 l 8.994386,3.628454 3.746325,4.969402 c 0.90331,1.19809 2.59517,1.43517 3.79326,0.53186 1.1981,-0.90331 1.43554,-2.5948 0.53223,-3.7929 l -3.78307,-5.017407 c -0.21256,-0.28192 -0.4688,-0.51002 -0.75196,-0.683204 -0.286914,-0.383814 -0.680004,-0.696385 -1.158679,-0.889473 l -7.600337,-3.065671 a 26.095463,20.682042 0 0 0 1.876075,-3.737231 l 9.398561,2.809925 4.06719,4.300018 c 1.03106,1.090105 2.73881,1.137648 3.82891,0.106596 1.0901,-1.031059 1.13764,-2.738447 0.10659,-3.828545 L 106.2749,86.82247 c -0.18821,-0.19899 -0.39919,-0.362553 -0.62463,-0.491847 -0.28557,-0.251941 -0.6289,-0.447984 -1.01898,-0.564603 L 94.205387,82.649054 a 26.095463,20.682042 0 0 0 0.02365,-0.380161 26.095463,20.682042 0 0 0 -0.12369,-1.920822 l 11.971293,2e-6 c 0.62208,0 1.19351,-0.208035 1.6498,-0.558058 0.23846,-0.106464 0.46603,-0.249386 0.6741,-0.429639 l 4.7493,-4.114122 c 1.13409,-0.98246 1.25604,-2.686448 0.27357,-3.820543 -0.98246,-1.13409 -2.68644,-1.256029 -3.82053,-0.273569 l -4.3626,3.779066 -12.738891,4e-6 A 26.095463,20.682042 0 0 0 90.964365,72.270438 L 108.1648,61.482921 c 0.38928,-0.244142 0.70096,-0.560927 0.92876,-0.920394 0.37952,-0.380989 0.61161,-0.908468 0.60754,-1.492273 l -0.1106,-15.886059 c -5.4e-4,-0.07821 -0.006,-0.155456 -0.0145,-0.231373 -0.0244,-1.265223 -0.094,-2.781099 -0.27686,-3.841276 -0.67164,-3.894928 -2.00055,-7.183893 -4.67726,-10.091948 -2.44116,-2.652146 -5.708991,-5.085478 -9.04532,-6.450029 -4.082082,-1.669553 -11.786435,-1.748541 -13.648742,-1.742198 -0.266044,9.07e-4 -0.412904,0.0036 -0.412904,0.0036 0,0 -2.05182,0.166611 -2.580011,0.955317 -0.316023,0.4719 -0.05348,1.556302 -0.05348,1.556302 0,0 8.492356,2.518368 11.025437,5.986921 0.370448,0.507255 0.432358,1.242604 0.309586,1.858612 -0.09521,0.477694 -1.234689,1.522806 -1.708366,1.636335 -4.447536,1.065975 -13.316234,-0.593344 -13.316234,-0.593344 0,0 -0.819393,0.493282 -0.950587,1.175411 -0.125949,0.654876 -0.125704,1.411618 0.150246,2.048875 0.485783,1.121827 2.461543,3.073393 3.452384,3.810719 1.426479,1.061506 2.326346,1.67241 3.934044,2.411939 2.62889,1.209257 3.120624,1.655473 5.960364,2.211491 3.743352,0.732946 7.546412,1.183468 11.35576,1.435522 l 0.06803,9.729974 -15.822031,9.922785 c -0.133994,0.08403 -0.255713,0.179048 -0.371068,0.279028 a 26.095463,20.682042 0 0 0 -5.0236,-2.152192 v -8.522914 c 0,-1.560481 -1.256359,-2.816839 -2.81684,-2.816839 -1.560481,0 -2.816839,1.256358 -2.81684,2.81684 l 10e-7,7.273288 a 26.095463,20.682042 0 0 0 -4.178149,-0.268114 26.095463,20.682042 0 0 0 -4.178149,0.276845 v -7.282019 c 0,-1.560482 -1.256358,-2.81684 -2.816839,-2.81684 -1.560482,0 -2.816839,1.256358 -2.81684,2.81684 v 8.536373 a 26.095463,20.682042 0 0 0 -5.013778,2.1471 C 53.1899,65.162004 53.064825,65.064228 52.927064,64.97783 l -15.822032,-9.922784 0.06803,-9.729975 c 3.809348,-0.252056 7.612415,-0.702579 11.355761,-1.435523 2.83974,-0.556018 3.331473,-1.002233 5.960364,-2.21149 1.607697,-0.739529 2.507565,-1.350432 3.934044,-2.411939 0.99084,-0.737325 2.966601,-2.688892 3.452384,-3.810719 0.275949,-0.637256 0.276193,-1.393998 0.150246,-2.048875 -0.131193,-0.682128 -0.950588,-1.175411 -0.950588,-1.175411 0,0 -8.868696,1.65932 -13.316234,0.593344 -0.473675,-0.113529 -1.613154,-1.15864 -1.708366,-1.636335 -0.122771,-0.616008 -0.06086,-1.351357 0.309587,-1.858612 2.533081,-3.468553 11.025437,-5.986921 11.025437,-5.986921 0,0 0.262547,-1.084402 -0.05348,-1.556302 -0.528189,-0.788705 -2.580011,-0.955317 -2.580011,-0.955317 0,0 -0.14686,-0.0027 -0.412903,-0.0036 z" />
  </g>
</svg>
