<?xml version="1.0" encoding="UTF-8" standalone="no"?>
<!-- Created with Inkscape (http://www.inkscape.org/) -->

<svg
   width="512"
   height="512"
   viewBox="0 0 135.46666 135.46667"
   version="1.1"
   id="svg5"
   inkscape:version="1.2.2 (b0a84865, 2022-12-01)"
   sodipodi:docname="ferris_wheel.svg"
   xmlns:inkscape="http://www.inkscape.org/namespaces/inkscape"
   xmlns:sodipodi="http://sodipodi.sourceforge.net/DTD/sodipodi-0.dtd"
   xmlns="http://www.w3.org/2000/svg"
   xmlns:svg="http://www.w3.org/2000/svg">
  <sodipodi:namedview
     id="namedview7"
     pagecolor="#ffffff"
     bordercolor="#000000"
     borderopacity="0.25"
     inkscape:showpageshadow="2"
     inkscape:pageopacity="0.0"
     inkscape:pagecheckerboard="0"
     inkscape:deskcolor="#d1d1d1"
     inkscape:document-units="mm"
     showgrid="false"
     inkscape:zoom="0.64454313"
     inkscape:cx="16.290609"
     inkscape:cy="166.7848"
     inkscape:window-width="1241"
     inkscape:window-height="847"
     inkscape:window-x="199"
     inkscape:window-y="25"
     inkscape:window-maximized="0"
     inkscape:current-layer="layer1" />
  <defs
     id="defs2" />
  <g
     inkscape:label="Layer 1"
     inkscape:groupmode="layer"
     id="layer1">
    <path
       id="path111"
       style="opacity:0.6;fill:#ffffff;stroke-width:0.203772"
       d="m 67.73333,23.398325 a 7.7874631,7.7874631 0 0 0 -7.774316,7.637663 37.528947,37.528947 0 0 0 -12.673176,5.253685 7.7874631,7.7874631 0 0 0 -5.686644,-2.181368 7.7874631,7.7874631 0 0 0 -5.215462,2.275402 7.7874631,7.7874631 0 0 0 -0.09369,10.901428 37.528947,37.528947 0 0 0 -5.254023,12.673853 7.7874631,7.7874631 0 0 0 -7.637663,7.774316 7.7874631,7.7874631 0 0 0 7.637663,7.774316 37.528947,37.528947 0 0 0 5.254023,12.673853 7.7874631,7.7874631 0 0 0 0.09369,10.901421 7.7874631,7.7874631 0 0 0 10.901429,0.09369 37.528947,37.528947 0 0 0 0.01319,0.0075 L 55.547237,76.159387 A 14.829318,14.829318 0 0 1 54.666436,74.72352 l -9.227434,9.227434 a 27.586212,27.586212 0 0 1 -4.93776,-11.92091 h 13.04153 a 14.829318,14.829318 0 0 1 -0.638614,-4.296778 14.829318,14.829318 0 0 1 0.638614,-4.296778 h -13.04153 a 27.586212,27.586212 0 0 1 4.93776,-11.920911 l 9.227434,9.227434 a 14.829318,14.829318 0 0 1 6.076643,-6.076644 l -9.227433,-9.227434 a 27.586212,27.586212 0 0 1 11.92091,-4.93776 v 13.041531 a 14.829318,14.829318 0 0 1 4.296778,-0.638615 14.829318,14.829318 0 0 1 4.296778,0.637262 v -13.05506 a 27.586212,27.586212 0 0 1 11.931735,4.941818 l -9.231155,9.231155 a 14.829318,14.829318 0 0 1 6.076643,6.076644 l 9.231152,-9.231154 a 27.586212,27.586212 0 0 1 4.941815,11.931734 H 81.925245 a 14.829318,14.829318 0 0 1 0.637261,4.296778 14.829318,14.829318 0 0 1 -0.638614,4.296778 H 94.980298 A 27.586212,27.586212 0 0 1 90.038483,83.961778 L 80.800228,74.72352 a 14.829318,14.829318 0 0 1 -0.8808,1.435867 l 8.255306,23.042538 a 37.528947,37.528947 0 0 0 0.02165,-0.01281 7.7874631,7.7874631 0 0 0 10.886543,-0.106217 7.7874631,7.7874631 0 0 0 0.111617,-10.894651 37.528947,37.528947 0 0 0 5.250646,-12.672162 7.7874631,7.7874631 0 0 0 7.62312,-7.782773 7.7874631,7.7874631 0 0 0 -7.62312,-7.782771 A 37.528947,37.528947 0 0 0 99.194545,47.278416 7.7874631,7.7874631 0 0 0 99.082928,36.383753 7.7874631,7.7874631 0 0 0 93.285005,34.108352 7.7874631,7.7874631 0 0 0 88.194694,36.27619 37.528947,37.528947 0 0 0 75.516107,31.021478 7.7874631,7.7874631 0 0 0 67.733335,23.398359 Z m -3.38e-4,35.719098 a 8.6159171,8.6159171 0 0 0 -8.615879,8.615881 8.6159171,8.6159171 0 0 0 2.649842,6.209914 L 50.312828,107.46369 c 0,0 -1.099043,2.66077 -0.510417,3.60912 0.649367,1.0462 2.659313,0.99513 2.659313,0.99513 h 10.522928 9.497356 10.522928 c 0,0 2.009947,0.0511 2.659313,-0.99513 0.588626,-0.94835 -0.510755,-3.60912 -0.510755,-3.60912 L 73.699028,73.943218 a 8.6159171,8.6159171 0 0 0 2.649843,-6.209914 8.6159171,8.6159171 0 0 0 -8.615879,-8.615881 z" />
  </g>
</svg>
