<?xml version="1.0" encoding="UTF-8" standalone="no"?>
<!-- Created with Inkscape (http://www.inkscape.org/) -->

<svg
   width="512"
   height="512"
   viewBox="0 0 135.46666 135.46667"
   version="1.1"
   id="svg5"
   inkscape:version="1.2.2 (b0a84865, 2022-12-01)"
   sodipodi:docname="golf.svg"
   xmlns:inkscape="http://www.inkscape.org/namespaces/inkscape"
   xmlns:sodipodi="http://sodipodi.sourceforge.net/DTD/sodipodi-0.dtd"
   xmlns="http://www.w3.org/2000/svg"
   xmlns:svg="http://www.w3.org/2000/svg">
  <sodipodi:namedview
     id="namedview7"
     pagecolor="#ffffff"
     bordercolor="#000000"
     borderopacity="0.25"
     inkscape:showpageshadow="2"
     inkscape:pageopacity="0.0"
     inkscape:pagecheckerboard="0"
     inkscape:deskcolor="#d1d1d1"
     inkscape:document-units="mm"
     showgrid="false"
     inkscape:zoom="0.79421756"
     inkscape:cx="223.4904"
     inkscape:cy="253.70882"
     inkscape:window-width="1185"
     inkscape:window-height="847"
     inkscape:window-x="0"
     inkscape:window-y="25"
     inkscape:window-maximized="0"
     inkscape:current-layer="layer1" />
  <defs
     id="defs2" />
  <g
     inkscape:label="Layer 1"
     inkscape:groupmode="layer"
     id="layer1">
    <path
       id="path840"
       style="fill:#ffffff;fill-rule:evenodd;stroke-width:0.202013;opacity:0.6"
       d="M 67.733332,23.166607 A 34.337985,34.337985 0 0 0 33.395418,57.504523 34.337985,34.337985 0 0 0 44.803559,83.042418 h 45.85981 A 34.337985,34.337985 0 0 0 102.07125,57.504523 34.337985,34.337985 0 0 0 67.733332,23.166607 Z m 26.330727,30.680275 a 5.6942388,5.6942388 0 0 1 2.51953,4.726961 5.6942388,5.6942388 0 0 1 -5.6943,5.694301 5.6942388,5.6942388 0 0 1 -4.726431,-2.521134 5.6942388,5.6942388 0 0 0 3.173441,0.968143 5.6942388,5.6942388 0 0 0 5.69429,-5.694301 5.6942388,5.6942388 0 0 0 -0.96653,-3.17397 z m -16.04758,4.658974 a 5.6942388,5.6942388 0 0 1 2.519528,4.72696 5.6942388,5.6942388 0 0 1 -5.694301,5.694301 5.6942388,5.6942388 0 0 1 -4.726425,-2.521135 5.6942388,5.6942388 0 0 0 3.173434,0.968145 5.6942388,5.6942388 0 0 0 5.694301,-5.694302 5.6942388,5.6942388 0 0 0 -0.966537,-3.173969 z m 8.766556,10.664301 a 5.6942388,5.6942388 0 0 1 2.519264,4.726959 5.6942388,5.6942388 0 0 1 -5.694302,5.694304 5.6942388,5.6942388 0 0 1 -4.726158,-2.521134 5.6942388,5.6942388 0 0 0 3.173434,0.968145 5.6942388,5.6942388 0 0 0 5.694031,-5.694304 5.6942388,5.6942388 0 0 0 -0.966269,-3.17397 z M 50.995717,87.366011 c -2.437647,0 -4.400142,1.962496 -4.400142,4.400137 0,2.43765 1.962495,4.400146 4.400142,4.400146 H 63.33319 v 11.733626 c 0,2.43764 1.962498,4.40014 4.400142,4.40014 2.437645,0 4.400141,-1.9625 4.400141,-4.40014 V 96.166294 h 12.337475 c 2.437647,0 4.400143,-1.962496 4.400143,-4.400146 0,-2.437641 -1.962496,-4.400137 -4.400143,-4.400137 z" />
  </g>
</svg>
