<?xml version="1.0" encoding="UTF-8" standalone="no"?>
<svg
   height="512"
   viewBox="0 0 512 512"
   version="1.1"
   id="svg4"
   sodipodi:docname="hippo.svg"
   width="512"
   inkscape:version="1.2.2 (b0a84865, 2022-12-01)"
   xmlns:inkscape="http://www.inkscape.org/namespaces/inkscape"
   xmlns:sodipodi="http://sodipodi.sourceforge.net/DTD/sodipodi-0.dtd"
   xmlns="http://www.w3.org/2000/svg"
   xmlns:svg="http://www.w3.org/2000/svg">
  <defs
     id="defs8" />
  <sodipodi:namedview
     id="namedview6"
     pagecolor="#ffffff"
     bordercolor="#000000"
     borderopacity="0.25"
     inkscape:showpageshadow="2"
     inkscape:pageopacity="0.0"
     inkscape:pagecheckerboard="0"
     inkscape:deskcolor="#d1d1d1"
     showgrid="false"
     inkscape:zoom="0.40350853"
     inkscape:cx="90.456576"
     inkscape:cy="221.80448"
     inkscape:window-width="1440"
     inkscape:window-height="847"
     inkscape:window-x="0"
     inkscape:window-y="25"
     inkscape:window-maximized="0"
     inkscape:current-layer="svg4" />
  <path
     d="m 303.80124,138.97918 c 5.1649,-5.16491 13.51666,-5.16491 18.62662,0 l 9.45068,9.45067 c 1.04397,-0.0549 2.14289,-0.10989 3.18686,-0.10989 h 17.58265 c 6.15394,0 12.03314,1.26376 17.36288,3.57148 l 8.5166,-8.5166 c 5.16491,-5.1649 13.51667,-5.1649 18.62662,0 5.10997,5.16491 5.16491,13.51667 0,18.62662 l -7.088,7.14296 c 4.17587,6.70339 6.59349,14.67053 6.59349,23.13218 0,5.60448 4.066,10.32981 9.17595,12.63754 15.32988,6.86822 25.98937,22.25305 25.98937,40.11043 0,14.39581 -6.92318,27.14323 -17.58266,35.16532 v 17.58266 c 0,4.83523 -3.9561,8.79133 -8.79133,8.79133 h -17.58266 c -4.83523,0 -8.79133,-3.9561 -8.79133,-8.79133 v -8.79133 h -35.16531 v 8.79133 c 0,4.83523 -3.9561,8.79133 -8.79133,8.79133 h -17.58265 c -4.83524,0 -8.79133,-3.9561 -8.79133,-8.79133 v -9.67046 c -6.4836,-1.3187 -12.4727,-4.06599 -17.58266,-7.9122 -0.82419,-0.60441 -1.59343,-1.26375 -2.36267,-1.9231 -9.34079,-8.07704 -15.21999,-20.00027 -15.21999,-33.24222 0,-4.83522 -3.95609,-8.79132 -8.79132,-8.79132 -4.83524,0 -8.79133,3.9561 -8.79133,8.79132 0,24.56078 14.39579,45.71491 35.16531,55.60516 v 5.93415 c 0,9.72541 7.85725,17.58266 17.58266,17.58266 h 17.58265 v 35.16531 c 0,9.72541 -7.85725,17.58265 -17.58265,17.58265 h -35.16532 c -9.7254,0 -17.58265,-7.85724 -17.58265,-17.58265 v -41.75882 c -10.87927,4.23083 -22.74757,6.59351 -35.16532,6.59351 -12.41775,0 -24.28604,-2.36268 -35.16531,-6.59351 v 41.75882 c 0,9.72541 -7.85726,17.58265 -17.58266,17.58265 h -35.16532 c -9.7254,0 -17.58265,-7.85724 -17.58265,-17.58265 v -65.33056 l -9.9452,22.308 c -2.96707,6.64843 -10.769371,9.67045 -17.417821,6.70338 -6.64844,-2.96708 -9.61551,-10.71443 -6.64844,-17.36287 l 12.03313,-27.14323 c 2.91213,-6.53855 4.39567,-13.57162 4.39567,-20.71457 0,-59.06674 46.813821,-107.2542 105.386051,-109.39709 l 0.1099,-0.0549 h 3.95609 13.62656 17.58266 c 22.9124,0 45.8248,6.64844 64.39648,14.12106 0.93408,-0.98902 1.92311,-1.97805 2.91213,-2.85718 l -1.9231,-1.92309 c -5.16491,-5.16491 -5.16491,-13.51667 0,-18.62663 z m 40.11043,101.64973 a 13.186993,13.186993 0 1 0 -26.37398,0 13.186993,13.186993 0 1 0 26.37398,0 z m 48.35231,13.18699 a 13.186995,13.186995 0 1 0 0,-26.37398 13.186995,13.186995 0 1 0 0,26.37398 z m -48.35231,-61.5393 a 8.79133,8.79133 0 1 0 -17.58266,0 8.79133,8.79133 0 1 0 17.58266,0 z m 26.37398,8.79133 a 8.79133,8.79133 0 1 0 0,-17.58266 8.79133,8.79133 0 1 0 0,17.58266 z"
     id="path2"
     style="opacity:0.6;fill:#ffffff;stroke-width:0.549458" />
</svg>
