<?xml version="1.0" encoding="UTF-8" standalone="no"?>
<svg
   viewBox="0 0 512 512"
   version="1.1"
   id="svg4"
   sodipodi:docname="paddle_board.svg"
   width="512"
   height="512"
   inkscape:version="1.2.2 (b0a84865, 2022-12-01)"
   xmlns:inkscape="http://www.inkscape.org/namespaces/inkscape"
   xmlns:sodipodi="http://sodipodi.sourceforge.net/DTD/sodipodi-0.dtd"
   xmlns="http://www.w3.org/2000/svg"
   xmlns:svg="http://www.w3.org/2000/svg">
  <defs
     id="defs8" />
  <sodipodi:namedview
     id="namedview6"
     pagecolor="#ffffff"
     bordercolor="#000000"
     borderopacity="0.25"
     inkscape:showpageshadow="2"
     inkscape:pageopacity="0.0"
     inkscape:pagecheckerboard="0"
     inkscape:deskcolor="#d1d1d1"
     showgrid="false"
     inkscape:zoom="0.77423107"
     inkscape:cx="152.40928"
     inkscape:cy="257.67501"
     inkscape:window-width="1150"
     inkscape:window-height="847"
     inkscape:window-x="0"
     inkscape:window-y="25"
     inkscape:window-maximized="0"
     inkscape:current-layer="svg4" />
  <path
     id="rect336"
     style="fill:#ffffff;stroke-width:0.611879;opacity:0.6"
     d="m 257.75344,102.99685 a 26.960712,25.812198 89.999997 0 0 -2.87781,0.14703 26.960712,25.812198 89.999997 0 0 -23.11408,26.81377 25.812327,26.960846 2.0338211e-6 0 0 51.62465,0 26.960712,25.812198 89.999997 0 0 -25.63276,-26.9608 z m 72.69245,23.22736 -1.54737,15.81832 c -2.63892,-1.64798 -5.68066,-2.53227 -8.79612,-2.47289 -2.15679,0.0411 -4.34502,0.52591 -6.44736,1.49916 l -50.13272,23.20808 a 47.339545,58.336409 90 0 1 30.19171,23.96127 l 32.11868,-14.86869 -8.05859,82.36348 c -0.0206,-6.56629 -3.42741,-12.88519 -9.43604,-16.02319 l -11.50883,-6.0111 -8.28034,-20.72554 c -9.19556,-23.08503 -30.81277,-38.13702 -54.79651,-38.13703 -3.32506,1e-5 -6.63659,0.21408 -9.92291,0.60617 l -20.1266,80.16175 c -1.17321,10.3123 1.95936,20.75415 8.80697,28.53467 l 38.01892,43.30456 9.83614,41.13534 h 35.45805 c -0.0262,-0.11911 -0.04,-0.23765 -0.0687,-0.35671 l -12.36808,-51.73071 c -1.07551,-4.38109 -3.11931,-8.36847 -6.02316,-11.68237 l -26.61734,-30.3315 10.37723,-36.78971 5.1627,12.91882 c 2.36612,6.00997 6.72198,10.84047 12.26083,13.76119 l 14.41195,7.4705 c 8.49649,4.43727 18.82124,0.84245 23.06949,-8.03208 0.60449,-1.26277 1.03578,-2.56535 1.33647,-3.88167 L 304.93,387.01801 H 102.17567 c 0.009,15.57404 56.02086,28.11168 125.59453,28.11168 h 56.45957 c 69.57366,1e-5 125.58511,-12.53764 125.59452,-28.11168 h -87.68045 l 25.32305,-258.83549 z m -134.33762,165.27289 -13.44305,35.04831 -31.94273,33.30814 c -2.3815,2.48746 -3.90228,5.52744 -4.59631,8.72502 h 44.96279 l 17.17287,-17.93691 c 2.47365,-2.58373 4.41078,-5.67309 5.70139,-9.04317 l 7.79708,-20.33268 -21.88727,-24.93861 c -1.34438,-1.5727 -2.63549,-3.14506 -3.76477,-4.8301 z" />
</svg>
