<?xml version="1.0" encoding="UTF-8" standalone="no"?>
<!-- Created with Inkscape (http://www.inkscape.org/) -->

<svg
   width="512"
   height="512"
   viewBox="0 0 135.46666 135.46667"
   version="1.1"
   id="svg5"
   inkscape:version="1.2.2 (b0a84865, 2022-12-01)"
   sodipodi:docname="plant.svg"
   xmlns:inkscape="http://www.inkscape.org/namespaces/inkscape"
   xmlns:sodipodi="http://sodipodi.sourceforge.net/DTD/sodipodi-0.dtd"
   xmlns="http://www.w3.org/2000/svg"
   xmlns:svg="http://www.w3.org/2000/svg">
  <sodipodi:namedview
     id="namedview7"
     pagecolor="#ffffff"
     bordercolor="#000000"
     borderopacity="0.25"
     inkscape:showpageshadow="2"
     inkscape:pageopacity="0.0"
     inkscape:pagecheckerboard="0"
     inkscape:deskcolor="#d1d1d1"
     inkscape:document-units="mm"
     showgrid="false"
     inkscape:zoom="0.46520169"
     inkscape:cx="363.28329"
     inkscape:cy="216.03533"
     inkscape:window-width="1185"
     inkscape:window-height="847"
     inkscape:window-x="0"
     inkscape:window-y="25"
     inkscape:window-maximized="0"
     inkscape:current-layer="layer1" />
  <defs
     id="defs2" />
  <g
     inkscape:label="Layer 1"
     inkscape:groupmode="layer"
     id="layer1">
    <path
       id="rect840"
       style="opacity:0.6;fill:#ffffff;stroke-width:0.157888"
       d="M 105.43838,18.606062 C 92.052859,29.882603 71.140529,28.721329 74.396496,51.806005 81.693231,46.292757 93.991536,42.627209 100.33095,26.774295 97.538732,39.998962 90.364043,42.779326 77.226323,54.615907 l -0.0053,-0.0024 c -4.126762,3.62655 -8.195695,6.004335 -10.22544,11.899995 -0.518968,-0.743482 -1.174255,-1.399229 -1.977503,-1.982384 l 0.01022,-0.0053 c -0.02506,-0.01409 -0.04899,-0.02703 -0.07402,-0.04107 -0.698529,-0.498982 -1.505901,-0.944945 -2.429283,-1.34802 l -0.0057,0.0078 C 48.031159,55.312849 40.714354,53.908297 35.187594,42.054711 c 9.721116,13.466061 23.148171,14.280201 30.674691,17.833726 1.458468,-18.97921 -23.337141,-15.80537 -35.854914,-25.6494 -1.177882,22.483227 11.10079,34.927912 31.862495,31.88242 l 0.696986,-0.352152 c 2.046988,2.513996 2.085993,4.913796 2.139347,8.593581 h 7.165453 C 70.896237,67.5263 72.223622,62.443917 77.774885,56.728416 97.316433,58.07991 106.61166,42.597367 105.43838,18.606062 Z M 47.151837,76.45181 c -1.510004,0 -2.725727,1.215723 -2.725727,2.725727 v 3.488181 c 0,1.510004 1.215723,2.725727 2.725727,2.725727 h 41.162822 c 1.510004,0 2.725726,-1.215723 2.725726,-2.725727 v -3.488181 c 0,-1.510004 -1.215722,-2.725727 -2.725726,-2.725727 z m 33.421156,10.238859 8.13e-4,0.0053 H 54.854464 c -0.06551,0 -0.130507,0.0021 -0.195188,0.0056 h -7.403745 l 3.819189,26.253661 0.0012,-0.0106 c 0.10646,2.18875 1.751198,3.91597 3.778524,3.91597 h 25.776679 c 2.073927,0 3.746671,-1.80758 3.782591,-4.06765 l 3.79723,-26.102788 z" />
  </g>
</svg>
