<?xml version="1.0" encoding="UTF-8" standalone="no"?>
<svg
   width="512"
   height="512"
   viewBox="0 0 135.46666 135.46667"
   version="1.1"
   id="svg5"
   inkscape:version="1.2.2 (b0a84865, 2022-12-01)"
   sodipodi:docname="sandcastle.svg"
   xmlns:inkscape="http://www.inkscape.org/namespaces/inkscape"
   xmlns:sodipodi="http://sodipodi.sourceforge.net/DTD/sodipodi-0.dtd"
   xmlns="http://www.w3.org/2000/svg"
   xmlns:svg="http://www.w3.org/2000/svg">
  <defs
     id="defs8" />
  <sodipodi:namedview
     id="namedview6"
     pagecolor="#ffffff"
     bordercolor="#000000"
     borderopacity="0.25"
     inkscape:showpageshadow="2"
     inkscape:pageopacity="0.0"
     inkscape:pagecheckerboard="0"
     inkscape:deskcolor="#d1d1d1"
     showgrid="false"
     inkscape:zoom="0.4609375"
     inkscape:cx="93.288136"
     inkscape:cy="259.25424"
     inkscape:window-width="1440"
     inkscape:window-height="847"
     inkscape:window-x="0"
     inkscape:window-y="25"
     inkscape:window-maximized="0"
     inkscape:current-layer="svg5" />
  <g
     id="g3"
     transform="matrix(0.67256609,0,0,0.67256609,22.178189,22.178189)"
     style="fill:#ffffff;opacity:0.6">
    <path
       id="rect111"
       style="fill:#ffffff;stroke-width:0.284472"
       d="m 67.733334,0.87130212 c -1.039507,0 -1.87656,0.83705328 -1.87656,1.87656068 V 32.430947 h -0.786452 c -2.355112,0 -4.251207,1.896095 -4.251207,4.251207 v 9.350581 h -5.420508 -5.591998 v -9.203667 c 0,-2.436539 -1.961589,-4.398121 -4.398122,-4.398121 h -5.866162 c -2.436533,0 -4.119661,1.977547 -4.398122,4.398121 L 33.18299,53.877042 c -0.02677,0.107351 -0.05836,0.212888 -0.08247,0.321136 L 17.08094,126.1159 c -0.989534,4.4423 2.037496,8.47946 7.281778,8.47946 h 30.861668 v -27.96054 c 0,-6.930036 5.5789,-12.509482 12.508948,-12.509482 6.93005,0 12.508948,5.579446 12.508948,12.509482 v 27.96054 h 30.861658 c 5.2443,0 8.27132,-4.03716 7.28178,-8.47946 L 102.36614,54.198178 c -0.0704,-0.316006 -0.15549,-0.626814 -0.2485,-0.934458 l -1.89075,-16.434652 c -0.278466,-2.420574 -1.96104,-4.398121 -4.397575,-4.398121 h -5.866164 c -2.436538,0 -4.398121,1.961582 -4.398121,4.398121 v 9.203667 h -5.496967 -5.076437 v -9.350581 c 0,-2.355112 -1.896095,-4.251207 -4.251206,-4.251207 H 69.609895 V 19.809492 H 92.721193 L 83.535002,10.622755 92.721193,1.4365642 H 69.076856 C 68.73653,1.0878642 68.261332,0.87130212 67.733334,0.87130212 Z" />
  </g>
</svg>
