<?xml version="1.0" encoding="UTF-8" standalone="no"?>
<!-- Created with Inkscape (http://www.inkscape.org/) -->

<svg
   width="512"
   height="512"
   viewBox="0 0 135.46667 135.46667"
   version="1.1"
   id="svg5"
   inkscape:version="1.2.2 (b0a84865, 2022-12-01)"
   sodipodi:docname="sheep.svg"
   xmlns:inkscape="http://www.inkscape.org/namespaces/inkscape"
   xmlns:sodipodi="http://sodipodi.sourceforge.net/DTD/sodipodi-0.dtd"
   xmlns="http://www.w3.org/2000/svg"
   xmlns:svg="http://www.w3.org/2000/svg">
  <sodipodi:namedview
     id="namedview7"
     pagecolor="#ffffff"
     bordercolor="#000000"
     borderopacity="0.25"
     inkscape:showpageshadow="2"
     inkscape:pageopacity="0.0"
     inkscape:pagecheckerboard="0"
     inkscape:deskcolor="#d1d1d1"
     inkscape:document-units="mm"
     showgrid="false"
     inkscape:zoom="0.81031531"
     inkscape:cx="247.43454"
     inkscape:cy="309.13892"
     inkscape:window-width="1440"
     inkscape:window-height="847"
     inkscape:window-x="0"
     inkscape:window-y="25"
     inkscape:window-maximized="0"
     inkscape:current-layer="layer1" />
  <defs
     id="defs2" />
  <g
     inkscape:label="Layer 1"
     inkscape:groupmode="layer"
     id="layer1">
    <g
       id="g648"
       transform="translate(-33.066823,13.095259)" />
    <path
       id="path111"
       style="opacity:0.6;fill:#ffffff;stroke-width:0.297777"
       d="m 92.831212,28.367777 c -3.928051,0 -7.412205,1.832187 -9.648455,4.691985 -0.317662,0.126081 -0.629819,0.284758 -0.930517,0.478724 l -8.223534,5.30456 c -2.250454,1.451677 -3.002804,4.262777 -1.686992,6.302605 1.315811,2.03983 4.186805,2.513232 6.437259,1.061554 l 1.814409,-1.170484 v 9.269413 c 0,6.779618 5.458218,12.237828 12.23783,12.237828 h 3.764685 c 6.779613,0 12.237833,-5.45821 12.237833,-12.237828 v -9.269413 l 1.8148,1.170484 c 2.25046,1.451678 5.12146,0.978276 6.43727,-1.061554 1.31581,-2.039828 0.56346,-4.850928 -1.68699,-6.302605 l -8.22394,-5.30456 c -0.30077,-0.194018 -0.61277,-0.352629 -0.93052,-0.478724 -2.23625,-2.859798 -5.72041,-4.691985 -9.648453,-4.691985 z m -25.663826,4.470107 a 11.667705,11.667705 0 0 0 -9.023015,4.277974 11.667705,11.667705 0 0 0 -7.86419,-3.050011 11.667705,11.667705 0 0 0 -11.25425,8.617045 11.667705,11.667705 0 0 0 -3.791211,-0.633476 11.667705,11.667705 0 0 0 -11.668262,11.667458 11.667705,11.667705 0 0 0 0.193741,2.075277 11.667705,11.667705 0 0 0 -6.026867,10.206764 11.667705,11.667705 0 0 0 8.12184,11.111961 11.667705,11.667705 0 0 0 -0.139075,1.784265 11.667705,11.667705 0 0 0 9.121896,11.363179 l 2.452711,10.87883 c 0.726478,3.22206 2.659202,5.96174 5.962153,5.96174 h 2.718802 c 3.302952,0 5.962153,-2.6588 5.962153,-5.96174 v -9.52586 a 12.943415,12.943415 0 0 0 6.721439,1.890785 12.943415,12.943415 0 0 0 5.936829,-1.451452 v 9.086527 c 0,3.30294 2.6592,5.96174 5.962154,5.96174 h 2.718803 c 3.302952,0 5.235676,-2.73968 5.962152,-5.96174 l 2.324887,-10.310067 a 11.667705,11.667705 0 0 0 0.65237,0.04221 11.667705,11.667705 0 0 0 11.667461,-11.667055 11.667705,11.667705 0 0 0 -0.953036,-4.617223 11.667705,11.667705 0 0 0 3.414996,-2.972433 c -1.570084,0.547635 -3.23883,0.842892 -4.970557,0.842892 -9.3334,0 -16.8474,-8.555646 -16.8474,-19.183155 v -1.64077 c -2.886031,-0.121908 -5.546542,-1.40032 -7.179262,-3.74217 -2.97055,-4.260726 -1.381511,-10.380134 3.562902,-13.720629 l 0.666436,-0.450185 a 11.667705,11.667705 0 0 0 -4.4066,-0.880677 z m 24.652515,8.664474 a 3.0420428,3.0420428 0 0 1 3.041569,3.041973 3.0420428,3.0420428 0 0 1 -3.041569,3.042374 3.0420428,3.0420428 0 0 1 -3.042379,-3.042374 3.0420428,3.0420428 0 0 1 3.042379,-3.041973 z m 10.127589,0 a 3.0420428,3.0420428 0 0 1 3.04237,3.041973 3.0420428,3.0420428 0 0 1 -3.04237,3.042374 3.0420428,3.0420428 0 0 1 -3.041972,-3.042374 3.0420428,3.0420428 0 0 1 3.041972,-3.041973 z" />
  </g>
</svg>
