<svg width="500" height="500" xmlns="http://www.w3.org/2000/svg">

 <g>
  <title>Layer 1</title>
  <g id="svg_44">
   <path id="svg_2" d="m22.26924,19l462,0l0,462l-462,0l0,-462z" opacity="undefined" stroke-width="15" stroke="#fff" fill="none"/>
   <path stroke="#fff" d="m15.73076,320.87817c0,0 2.59041,0 5.18081,0c2.59041,0 9.49816,0 16.4059,0c6.90775,0 14.67897,0.92145 21.58672,2.30362c6.90775,1.38217 14.10683,2.94241 20.72325,5.06796c6.36347,2.04429 12.28518,4.46703 18.13284,6.91086c6.26724,2.61918 12.97854,5.51227 18.99631,8.29303c6.9385,3.20622 13.64057,7.00698 19.85978,10.13593c7.56496,3.806 18.99631,10.13593 26.76753,14.28244c4.31734,2.30362 17.28724,9.20402 26.76753,13.82172c10.38123,5.05653 15.27956,7.53966 32.81181,15.20389c16.16877,7.06818 29.9468,12.21236 37.99262,14.74317c24.28603,7.63915 42.23202,11.18493 60.44281,14.28244c19.77854,3.36418 40.50342,5.46557 61.30627,6.45014c16.36435,0.77449 42.30996,0.92145 55.26199,0.92145c14.67897,0 28.49447,-0.46072 35.40221,-0.92145c6.90775,-0.46072 9.49816,-0.92145 10.36162,-1.8429l0,0" id="svg_13" stroke-width="15" fill="none"/>
   <line stroke="#fff" id="svg_20" y2="155.31687" x2="115.11054" y1="338.00309" x1="115.11054" stroke-width="15" fill="none"/>
   <line stroke="#fff" id="svg_36" y2="155.31687" x2="384.34892" y1="318.77179" x1="384.34892" stroke-width="15" fill="none"/>
   <g id="svg_40">
    <line stroke="#fff" id="svg_22" y2="31.89835" x2="255.2393" y1="160.72214" x1="112.8038" stroke-width="15" fill="none"/>
    <line stroke="#fff" id="svg_39" y2="31.89835" x2="245.23903" y1="160.72213" x1="386.6577" stroke-width="15" fill="none"/>
   </g>
   <path stroke="#fff" d="m184.53182,377.69226c0.8626,0 3.45041,0 7.76347,0c1.72521,0 10.35131,-2.30768 17.25217,-5.38461c8.6261,-3.84616 17.3276,-7.53378 21.56522,-9.23077c15.83616,-6.34171 32.71329,-13.23035 48.3061,-18.46152c18.8999,-6.34064 41.24453,-12.8942 64.69564,-17.69232c21.43535,-4.38571 36.96618,-6.53601 56.93217,-7.69229c18.93751,-1.09671 42.29036,-0.16196 56.93217,1.53845c12.09702,1.40488 18.11478,2.30768 21.56526,3.07693l1.72521,0" id="svg_42" stroke-width="15" fill="none"/>
  </g>
 </g>
</svg>